<?xml version="1.0" encoding="UTF-8"?>
<svg version="1.1" xmlns="http://www.w3.org/2000/svg" width="1741" height="1520">
<path d="M0 0 C18.08843075 -0.65662769 36.17373955 -1.14899959 54.27154446 -1.45074081 C62.67704398 -1.59463591 71.07510906 -1.79036872 79.47583008 -2.11230469 C86.80622038 -2.39308692 94.13123134 -2.57238641 101.46684891 -2.63447785 C105.34800647 -2.67075826 109.21379437 -2.7545447 113.08996391 -2.96044159 C136.01884211 -4.13187927 136.01884211 -4.13187927 142.52220583 1.26267242 C148.92928436 7.90041179 152.85112066 16.42232313 156.54284573 24.7638855 C158.34229962 28.76019457 160.46891334 32.37540576 162.78125 36.09375 C164.02270202 38.22808082 165.26235091 40.3634617 166.5 42.5 C172.16368943 52.23367728 177.94067503 61.89057093 183.8125 71.5 C189.2779741 80.44554932 194.60801296 89.45263552 199.77050781 98.5769043 C203.42141946 105.02075091 207.19163548 111.38333198 211.01782227 117.72436523 C215.79817774 125.6489902 220.52768118 133.60321072 225.25 141.5625 C225.86272263 142.59499374 225.86272263 142.59499374 226.48782349 143.64834595 C232.64555366 154.02500641 238.79707005 164.40534884 244.94702148 174.78662109 C252.48109051 187.50298731 260.0291872 200.21102018 267.57666016 212.91943359 C271.94629001 220.27711109 276.3148801 227.63540601 280.68365479 234.99359131 C281.86852367 236.98922104 283.05339964 238.98484657 284.23828125 240.98046875 C284.629552 241.63946167 285.02082275 242.29845459 285.4239502 242.97741699 C287.82890537 247.0278548 290.2341099 251.07814442 292.63949585 255.12832642 C301.08258056 269.34479012 309.52136889 283.56375901 317.94873047 297.78955078 C323.06510693 306.42510113 328.18754815 315.05703682 333.3125 323.6875 C333.70869537 324.35470062 334.10489075 325.02190125 334.51309204 325.70932007 C337.34189384 330.47297954 340.17092187 335.23650463 343 340 C346.2293206 345.43740859 349.45854349 350.87487518 352.6875 356.3125 C353.08393707 356.98010345 353.48037415 357.64770691 353.88882446 358.33554077 C359.91242469 368.47976724 365.92920683 378.62800987 371.94213867 388.77856445 C377.12248764 397.52237534 382.31029359 406.26174083 387.5 415 C393.98670183 425.92209795 400.46710471 436.84788903 406.94140625 447.77734375 C412.12201508 456.52155229 417.31007764 465.26131715 422.5 474 C431.65660006 489.4179752 440.79934071 504.84412631 449.93847656 520.27246094 C457.78551738 533.51902255 465.63826807 546.76215375 473.5 560 C484.18370608 577.98991304 494.85893513 595.9848205 505.5 614 C507.66628581 617.66689183 509.83294998 621.33355974 512 625 C512.33465271 625.56620056 512.66930542 626.13240112 513.01409912 626.71575928 C515.20897416 630.42892011 517.40493959 634.14143335 519.60205078 637.85327148 C520.32028263 639.06696376 521.03822335 640.28082837 521.75585938 641.49487305 C522.75702724 643.18845274 523.75934917 644.88135004 524.76171875 646.57421875 C525.33881592 647.54963623 525.91591309 648.52505371 526.51049805 649.5300293 C527.62736436 651.38207592 528.80032478 653.20048717 530 655 C530.72714736 659.67451877 528.75507193 662.64428068 526.3125 666.4375 C525.47532334 667.78438682 524.63946387 669.13209295 523.8046875 670.48046875 C523.35061523 671.2079834 522.89654297 671.93549805 522.42871094 672.68505859 C519.86738961 676.83516947 517.40910753 681.04607056 514.9375 685.25 C513.81808041 687.14735499 512.69827681 689.04448345 511.578125 690.94140625 C510.99740234 691.92512207 510.41667969 692.90883789 509.81835938 693.92236328 C506.61324133 699.34713745 503.40032954 704.76729055 500.1875 710.1875 C499.5164624 711.31961914 498.8454248 712.45173828 498.15405273 713.61816406 C496.78553385 715.92695145 495.4169508 718.23570079 494.04833984 720.54443359 C491.36312876 725.074261 488.67863657 729.60451438 485.99414062 734.13476562 C483.99225909 737.51306326 481.99026997 740.89129713 479.98828125 744.26953125 C477.36030252 748.70420528 474.73272401 753.13911607 472.10546875 757.57421875 C462.97485435 772.98676894 453.8325966 788.39237043 444.68476868 803.79470825 C442.17839348 808.01498307 439.67298778 812.23583177 437.16835022 816.45713806 C435.47688056 819.30792488 433.78515017 822.15855694 432.09341431 825.00918579 C431.29948468 826.34714364 430.50567578 827.68517314 429.71200562 829.02328491 C428.96325757 830.28563449 428.21416287 831.54777852 427.46470642 832.80970764 C426.73962801 834.03221079 426.01633646 835.25577571 425.29493713 836.48045349 C423.38311399 839.7169651 421.42861445 842.91746038 419.41113281 846.08935547 C418.98849152 846.76397324 418.56585022 847.438591 418.13040161 848.13365173 C417.31916675 849.42597003 416.49637076 850.71112721 415.66036987 851.98756409 C414.03884372 854.59082643 412.99006191 856.4395993 413.04516602 859.546875 C414.23609314 862.60656198 415.71646274 865.30425406 417.39453125 868.12890625 C417.73754776 868.71069641 418.08056427 869.29248657 418.43397522 869.89190674 C419.55325499 871.78628762 420.68270883 873.67437255 421.8125 875.5625 C422.5977532 876.886616 423.38241617 878.2110822 424.16650391 879.53588867 C426.43469586 883.3630452 428.71564691 887.18247393 431 891 C431.82781982 892.38541992 431.82781982 892.38541992 432.67236328 893.79882812 C435.02069562 897.72557359 437.37762025 901.64706331 439.73828125 905.56640625 C443.87479938 912.44400639 447.96713637 919.34784797 452.0625 926.25 C452.46660095 926.93099762 452.8707019 927.61199524 453.28704834 928.31362915 C455.36237015 931.81114015 457.43736975 935.30884216 459.51220703 938.80664062 C463.11279403 944.87622667 466.71623834 950.94411595 470.31954956 957.01208496 C472.29649122 960.34131585 474.27323532 963.67066403 476.25 967 C477.04166573 968.33333389 477.83333239 969.66666722 478.625 971 C486.54166667 984.33333333 494.45833333 997.66666667 502.375 1011 C502.76686493 1011.65997986 503.15872986 1012.31995972 503.56246948 1012.99993896 C504.35424916 1014.33346905 505.14601754 1015.66700584 505.93777466 1017.00054932 C507.91511992 1020.33092733 509.89266019 1023.66118924 511.87060547 1026.99121094 C515.4550318 1033.0263039 519.03797048 1039.06225644 522.61372375 1045.10249329 C524.61652543 1048.48556281 526.62049288 1051.86794073 528.625 1055.25 C529.0177713 1055.91278961 529.4105426 1056.57557922 529.81521606 1057.25845337 C535.80749755 1067.36482474 541.88783172 1077.41465451 548.00918579 1087.4432373 C553.05832061 1095.72205399 557.9653105 1104.06584773 562.72924805 1112.51171875 C566.78739385 1119.69222304 571.02702497 1126.75604883 575.3449707 1133.78320312 C575.82409912 1134.57017578 576.30322754 1135.35714844 576.796875 1136.16796875 C577.22323242 1136.86172607 577.64958984 1137.5554834 578.08886719 1138.27026367 C579 1140 579 1140 579 1142 C581.86976458 1139.44824817 583.57071417 1136.55389813 585.484375 1133.2421875 C585.98248688 1132.38556015 585.98248688 1132.38556015 586.49066162 1131.5116272 C587.20661222 1130.27949002 587.9205116 1129.04615912 588.63256836 1127.81176758 C590.54231232 1124.50173942 592.46738354 1121.20063508 594.390625 1117.8984375 C594.78072754 1117.22774231 595.17083008 1116.55704712 595.57275391 1115.86602783 C599.15796899 1109.70940354 602.81889346 1103.59973612 606.5 1097.5 C611.96348019 1088.4346104 617.34613241 1079.32509993 622.6875 1070.1875 C627.90440354 1061.26352448 633.15437422 1052.36200713 638.48876953 1043.50756836 C643.57461702 1035.06115329 648.59381802 1026.57558664 653.61631775 1018.09140015 C653.96078445 1017.50951935 654.30525116 1016.92763855 654.66015625 1016.328125 C655.00941666 1015.73810699 655.35867706 1015.14808899 655.71852112 1014.54019165 C659.97201766 1007.35597459 664.23636938 1000.1782055 668.5 993 C674.33844903 983.16969071 680.17283547 973.3370041 686 963.5 C692.23247584 952.9787782 698.47384886 942.46287011 704.71826172 931.94873047 C710.1504013 922.80204627 715.57812742 913.65277522 721 904.5 C726.76543486 894.76762225 732.53681771 885.03879887 738.3125 875.3125 C738.70869537 874.64529938 739.10489075 873.97809875 739.51309204 873.29067993 C742.74806348 867.84303694 745.98334049 862.39557544 749.21862793 856.94812012 C752.04172648 852.19466392 754.864707 847.44113765 757.6875 842.6875 C758.08393707 842.01989655 758.48037415 841.35229309 758.88882446 840.66445923 C764.91242469 830.52023276 770.92920683 820.37199013 776.94213867 810.22143555 C782.52784266 800.79343375 788.12246816 791.370746 793.71826172 781.94873047 C799.15040128 772.80204629 804.57814667 763.6527866 810 754.5 C816.23247584 743.9787782 822.47384886 733.46287011 828.71826172 722.94873047 C834.1504013 713.80204627 839.57812742 704.65277522 845 695.5 C850.76543486 685.76762225 856.53681771 676.03879887 862.3125 666.3125 C862.70869537 665.64529938 863.10489075 664.97809875 863.51309204 664.29067993 C866.74806348 658.84303694 869.98334049 653.39557544 873.21862793 647.94812012 C876.04172648 643.19466392 878.864707 638.44113765 881.6875 633.6875 C882.08393707 633.01989655 882.48037415 632.35229309 882.88882446 631.66445923 C888.91242469 621.52023276 894.92920683 611.37199013 900.94213867 601.22143555 C906.52784266 591.79343375 912.12246816 582.370746 917.71826172 572.94873047 C923.15040128 563.80204629 928.57814667 554.6527866 934 545.5 C940.23247584 534.9787782 946.47384886 524.46287011 952.71826172 513.94873047 C958.15040128 504.80204629 963.57814667 495.6527866 969 486.5 C975.5430947 475.45441358 982.09531254 464.41427093 988.65234375 453.37695312 C989.15575413 452.52314072 989.15575413 452.52314072 989.66933441 451.65207958 C990.41949173 450.39720543 991.18340134 449.15038415 991.96479034 447.91471577 C994.69290204 443.52245255 996.84466308 439.10333936 998.85656738 434.33805847 C1007.06117377 416.26510521 1007.06117377 416.26510521 1015.30265808 412.48529434 C1024.19953758 410.35967739 1033.22807541 410.80212102 1042.29623413 411.26236367 C1046.23200373 411.43292111 1050.16852793 411.44713726 1054.10742188 411.47904968 C1061.54238843 411.56249541 1068.96644358 411.78326062 1076.39663315 412.0554859 C1084.86445549 412.35888784 1093.33284321 412.50610542 1101.80475998 412.64126265 C1119.20945389 412.92237732 1136.60356902 413.39620582 1154 414 C1153.1746624 417.66023513 1151.7705685 420.36653451 1149.8515625 423.609375 C1149.18592285 424.73964111 1148.5202832 425.86990723 1147.83447266 427.03442383 C1147.09809981 428.27301941 1146.36160525 429.51154262 1145.625 430.75 C1144.85815377 432.04752948 1144.09172315 433.34530466 1143.32568359 434.64331055 C1141.29788702 438.07607037 1139.26369666 441.50499466 1137.22753906 444.93280029 C1136.03076926 446.94818397 1134.83540452 448.96439292 1133.640625 450.98095703 C1129.30479296 458.29900048 1124.96181886 465.61276792 1120.61355591 472.9234314 C1116.63391952 479.61448389 1112.65943236 486.30858834 1108.68548584 493.00302124 C1106.70720807 496.33547664 1104.72858658 499.66772794 1102.75 503 C1101.95833169 504.33333236 1101.16666502 505.66666569 1100.375 507 C1092.45833333 520.33333333 1084.54166667 533.66666667 1076.625 547 C1076.23314011 547.65997482 1075.84128021 548.31994965 1075.43754578 548.99992371 C1074.64572746 550.33351191 1073.85390821 551.66709956 1073.06208801 553.00068665 C1071.08523385 556.33011587 1069.10839593 559.65955474 1067.1315918 562.98901367 C1063.54151111 569.03561868 1059.95130375 575.0821483 1056.36050415 581.12832642 C1048.56821065 594.24898807 1040.77778235 607.37072922 1033 620.5 C1024.8175878 634.31230544 1016.62102735 648.11619078 1008.42333984 661.91943359 C1004.84324022 667.94768296 1001.26388414 673.9763738 997.68447876 680.0050354 C995.70635028 683.33670873 993.72817263 686.66835288 991.75 690 C990.9583331 691.33333319 990.16666643 692.66666653 989.375 694 C939.5 778 939.5 778 889.625 862 C889.03721016 862.98996223 889.03721016 862.98996223 888.43754578 863.99992371 C887.64572746 865.33351191 886.85390821 866.66709956 886.06208801 868.00068665 C884.08523385 871.33011587 882.10839593 874.65955474 880.1315918 877.98901367 C876.54151111 884.03561868 872.95130375 890.0821483 869.36050415 896.12832642 C861.56821065 909.24898807 853.77778235 922.37072922 846 935.5 C837.8175878 949.31230544 829.62102735 963.11619078 821.42333984 976.91943359 C817.84324022 982.94768296 814.26388414 988.9763738 810.68447876 995.0050354 C808.70635028 998.33670873 806.72817263 1001.66835288 804.75 1005 C803.9583331 1006.33333319 803.16666643 1007.66666653 802.375 1009 C763.1875 1075 724 1141 682.43756104 1210.99989319 C681.64568622 1212.33357977 680.8538161 1213.66726914 680.06195068 1215.0009613 C678.08600723 1218.32891283 676.10998278 1221.65681621 674.13378906 1224.98461914 C670.53333318 1231.04777534 666.93350312 1237.11129905 663.33666992 1243.17660522 C661.70010944 1245.93620528 660.06308043 1248.69552728 658.42602539 1251.45483398 C657.67172738 1252.72650808 656.91763956 1253.99830688 656.16381836 1255.27026367 C655.81520752 1255.858479 655.46659668 1256.44669434 655.10742188 1257.05273438 C654.75825211 1257.64848267 654.40908234 1258.24423096 654.04933167 1258.85803223 C653.30811443 1260.09241413 652.54111736 1261.31162018 651.75132751 1262.51550293 C649.05726592 1266.72283126 647.42024004 1270.67690157 645.94946289 1275.4609375 C643.28266523 1282.85493129 640.20266818 1290.07148597 633 1294 C617.66421089 1298.99770567 599.49629107 1296.8387511 583.64575195 1296.24121094 C578.69242084 1296.08598113 573.74195093 1296.05825276 568.7865057 1296.03448677 C564.01145996 1296.00484196 559.23839345 1295.92516319 554.46429634 1295.82735825 C552.18351857 1295.78120736 549.90254361 1295.74390538 547.62147331 1295.71570206 C544.43809343 1295.66313449 541.2627502 1295.55025703 538.08178711 1295.41845703 C536.67675179 1295.40807907 536.67675179 1295.40807907 535.24333191 1295.39749146 C531.28238151 1295.17668981 528.92588189 1294.97242503 526.11892605 1292.02436638 C524.57716236 1289.73948028 523.26246898 1287.4482204 522 1285 C521.30698519 1283.84739899 520.60797479 1282.6983667 519.90112305 1281.55419922 C519.27761963 1280.48186035 518.65411621 1279.40952148 518.01171875 1278.3046875 C517.66422073 1277.70931183 517.31672272 1277.11393616 516.95869446 1276.5005188 C515.86566899 1274.62686144 514.77635825 1272.75108157 513.6875 1270.875 C512.2552803 1268.41326057 510.82144168 1265.95246879 509.38671875 1263.4921875 C509.02779541 1262.87644363 508.66887207 1262.26069977 508.29907227 1261.626297 C504.99552481 1255.9700041 501.62542483 1250.35474316 498.24829102 1244.7421875 C494.51294847 1238.53206315 490.82198989 1232.29549931 487.125 1226.0625 C486.30016859 1224.67250327 485.47529783 1223.28252988 484.65039062 1221.89257812 C482.94548757 1219.01978326 481.24074962 1216.14689051 479.53613281 1213.27392578 C477.09512701 1209.16005061 474.65321286 1205.04671532 472.2109375 1200.93359375 C471.82143921 1200.27760696 471.43194092 1199.62162018 471.03063965 1198.945755 C469.06460431 1195.63467831 467.09835339 1192.32372983 465.13183594 1189.01293945 C461.54661309 1182.97645279 457.96284716 1176.93912472 454.38627625 1170.89750671 C452.38347457 1167.51443719 450.37950712 1164.13205927 448.375 1160.75 C447.9822287 1160.08721039 447.5894574 1159.42442078 447.18478394 1158.74154663 C441.19250245 1148.63517526 435.11216828 1138.58534549 428.99081421 1128.5567627 C423.93025427 1120.25921282 419.02065128 1111.89228509 414.2355957 1103.43334961 C410.51399689 1096.86308816 406.66532757 1090.37831415 402.76464844 1083.91308594 C398.62170051 1077.04528167 394.52254781 1070.15239135 390.4375 1063.25 C389.0677345 1060.93618242 387.6979456 1058.62237871 386.328125 1056.30859375 C385.97822006 1055.7175032 385.62831512 1055.12641266 385.26780701 1054.51741028 C381.08073787 1047.44532772 376.88413025 1040.37891157 372.6875 1033.3125 C371.88687806 1031.96427614 371.08625958 1030.61605022 370.28564453 1029.26782227 C367.8572196 1025.17847498 365.42862545 1021.0892282 363 1017 C351.9750934 998.43667685 340.95554426 979.8702289 329.95166016 961.29443359 C326.63504347 955.69593152 323.31746688 950.09799831 320 944.5 C318.66666221 942.25000264 317.33332887 940.00000264 316 937.75 C315.34 936.63625 314.68 935.5225 314 934.375 C312 931 310 927.625 308 924.25 C307.3395166 923.13544434 306.6790332 922.02088867 305.99853516 920.87255859 C304.67004892 918.63071778 303.34159819 916.38885592 302.01318359 914.14697266 C297.95894664 907.30500816 297.95894664 907.30500816 293.90332031 900.46386719 C293.55449295 899.87558136 293.20566559 899.28729553 292.8462677 898.68118286 C292.14331191 897.49580166 291.44025863 896.31047826 290.73710632 895.12521362 C289.02692304 892.24195045 287.3193887 889.35719472 285.61547852 886.47021484 C282.69453858 881.52325501 279.76056804 876.58895252 276.73828125 871.703125 C276.25858887 870.91824707 275.77889648 870.13336914 275.28466797 869.32470703 C274.41946322 867.91196785 273.543066 866.50598898 272.65283203 865.10888672 C269.93711339 860.64238374 269.93711339 860.64238374 270.23510742 857.59838867 C271.06406997 854.78235025 272.17503519 852.66793678 273.7109375 850.16796875 C274.28642334 849.22131348 274.86190918 848.2746582 275.45483398 847.29931641 C276.08848877 846.27241699 276.72214355 845.24551758 277.375 844.1875 C278.39264867 842.51546303 279.41025827 840.8434017 280.42643738 839.17047119 C281.14826005 837.98258014 281.87094696 836.79521388 282.59443665 835.6083374 C286.52566414 829.15532883 290.38181933 822.65828598 294.23330688 816.1574707 C295.44538597 814.11168984 296.65846774 812.06650668 297.87182617 810.02148438 C300.24883245 806.01488485 302.62452219 802.00750586 305 798 C305.71548701 796.7931269 306.43098157 795.58625827 307.14648438 794.37939453 C311.11506634 787.68517569 315.0820354 780.99000207 319.04833984 774.29443359 C322.36495653 768.69593152 325.68254415 763.09800485 329 757.5 C329.65806641 756.38947266 330.31613281 755.27894531 330.99414062 754.13476562 C334.02141034 749.02606267 337.04882955 743.91744857 340.07695007 738.80924988 C349.85974272 722.30643847 359.63010559 705.79635458 369.37890625 689.2734375 C369.93900391 688.32621826 370.49910156 687.37899902 371.07617188 686.40307617 C372.17877164 684.53190518 373.27529072 682.65713571 374.36523438 680.77856445 C376.77961183 676.6360522 379.22566612 672.60034319 382.02734375 668.70703125 C382.47948242 668.05210693 382.93162109 667.39718262 383.39746094 666.72241211 C384.58846386 665.0168256 385.82932055 663.34634336 387.07421875 661.6796875 C388.39298515 656.4380084 386.50645931 653.82994652 383.93530273 649.23046875 C383.29665283 648.16441406 382.65800293 647.09835937 382 646 C381.39679932 644.97003906 380.79359863 643.94007813 380.17211914 642.87890625 C378.55746879 640.1669146 376.91711789 637.47334867 375.25592041 634.78967285 C373.36829372 631.73819842 371.49892887 628.67556489 369.62890625 625.61328125 C369.24317444 624.98211395 368.85744263 624.35094666 368.46002197 623.70065308 C364.43369365 617.09785802 360.52159812 610.42991513 356.625 603.75 C355.20873499 601.32398403 353.79205635 598.89821007 352.375 596.47265625 C352.01941513 595.86395691 351.66383026 595.25525757 351.29747009 594.62811279 C347.10671282 587.46144526 342.86725996 580.32376187 338.625 573.1875 C338.23075836 572.52420685 337.83651672 571.8609137 337.43032837 571.17752075 C335.42752375 567.80815299 333.42413337 564.43913405 331.42041016 561.0703125 C327.78192229 554.95246528 324.14800148 548.83190589 320.51409912 542.71133423 C319.31432247 540.69056956 318.11443899 538.66986835 316.91455078 536.64916992 C311.29010726 527.17654092 305.6726126 517.69981327 300.05786133 508.22143555 C294.87751236 499.47762466 289.68970641 490.73825917 284.5 482 C278.66167454 472.16961713 272.82718534 462.33699208 267 452.5 C261.23456514 442.76762225 255.46318229 433.03879887 249.6875 423.3125 C249.29130463 422.64529938 248.89510925 421.97809875 248.48690796 421.29067993 C245.65810616 416.52702046 242.82907813 411.76349537 240 407 C236.7706794 401.56259141 233.54145651 396.12512482 230.3125 390.6875 C229.91606293 390.01989655 229.51962585 389.35229309 229.11117554 388.66445923 C223.08539481 378.51656062 217.06656939 368.36456476 211.05126953 358.21044922 C205.93489307 349.57489887 200.81245185 340.94296318 195.6875 332.3125 C195.29130463 331.64529938 194.89510925 330.97809875 194.48690796 330.29067993 C191.65810616 325.52702046 188.82907813 320.76349537 186 316 C182.7706794 310.56259141 179.54145651 305.12512482 176.3125 299.6875 C175.91606293 299.01989655 175.51962585 298.35229309 175.11117554 297.66445923 C169.08539481 287.51656062 163.06656939 277.36456476 157.05126953 267.21044922 C151.93489307 258.57489887 146.81245185 249.94296318 141.6875 241.3125 C141.29130463 240.64529938 140.89510925 239.97809875 140.48690796 239.29067993 C137.65810616 234.52702046 134.82907813 229.76349537 132 225 C128.7706794 219.56259141 125.54145651 214.12512482 122.3125 208.6875 C121.71784439 207.68609482 121.71784439 207.68609482 121.11117554 206.66445923 C115.08539481 196.51656062 109.06656939 186.36456476 103.05126953 176.21044922 C97.93489307 167.57489887 92.81245185 158.94296318 87.6875 150.3125 C87.29130463 149.64529938 86.89510925 148.97809875 86.48690796 148.29067993 C83.65810616 143.52702046 80.82907813 138.76349537 78 134 C74.7706794 128.56259141 71.54145651 123.12512482 68.3125 117.6875 C67.91606293 117.01989655 67.51962585 116.35229309 67.11117554 115.66445923 C61.08539481 105.51656062 55.06656939 95.36456476 49.05126953 85.21044922 C43.14324405 75.23873351 37.22733267 65.27171047 31.30810547 55.30664062 C30.50878239 53.96094146 29.70946602 52.61523832 28.91015625 51.26953125 C28.51177551 50.59882599 28.11339478 49.92812073 27.70294189 49.23709106 C25.15498261 44.94672189 22.60931313 40.65500188 20.06520081 36.36235046 C18.33516394 33.44338729 16.60444507 30.52482875 14.87368774 27.60629272 C14.05220315 26.22060841 13.2310473 24.83472915 12.4102478 23.44863892 C11.26654709 21.51733067 10.1217134 19.58669864 8.9765625 17.65625 C8.62437149 17.06116135 8.27218048 16.46607269 7.90931702 15.85295105 C5.98869578 12.61913699 4.00754429 9.43649522 1.9609375 6.28125 C0 3 0 3 0 0 Z " fill="#4455FF" transform="translate(290,226)"/>
<path d="M0 0 C23.08252958 -0.07386066 46.15740439 0.12641908 69.23804126 0.40686776 C74.30495236 0.46802238 79.37188869 0.52702125 84.43882173 0.58632481 C94.44415871 0.70376365 104.44947123 0.82317514 114.45477707 0.94323442 C126.45519182 1.08714528 138.45563164 1.22891629 150.45607167 1.37070098 C179.42546838 1.71310074 208.39481804 2.05940279 237.36415759 2.40659677 C246.95504473 2.52154191 256.54593319 2.63637594 266.13682246 2.75114298 C316.4578058 3.35332145 366.77877555 3.95662643 417.09970091 4.56363194 C420.77402465 4.60795302 424.44834846 4.6522674 428.12267229 4.69658131 C428.85149204 4.70537119 429.58031179 4.71416107 430.33121699 4.72321731 C437.71440224 4.81226058 445.09758761 4.90129452 452.48077309 4.99031926 C453.96104801 5.00816839 455.44132292 5.02601819 456.92159782 5.04386867 C504.54241061 5.61812267 552.16330065 6.18558068 599.78424896 6.74847897 C634.04850205 7.15349927 668.31274316 7.55941371 702.57690334 7.97223091 C703.63324025 7.98495711 703.63324025 7.98495711 704.71091729 7.99794041 C720.16753878 8.18417381 735.62415369 8.37094766 751.08076252 8.55822827 C757.29857104 8.63355869 763.51638039 8.70881993 769.73418999 8.78406143 C770.41464226 8.79229752 771.09509452 8.80053361 771.79616656 8.80901928 C793.7185809 9.07433336 815.64106051 9.33371001 837.56358175 9.59002648 C860.23363883 9.85511745 882.9036059 10.12707553 905.57348479 10.40703474 C918.64752211 10.56828126 931.7215982 10.72412633 944.79578981 10.87234796 C953.51726357 10.97174954 962.23863458 11.07808683 970.95995454 11.19017098 C975.93570608 11.25391757 980.91144391 11.31455465 985.8873309 11.36677574 C990.40903732 11.41429013 994.93054391 11.47058727 999.45205388 11.53404725 C1001.08200894 11.55535741 1002.71201061 11.573402 1004.34204077 11.58787043 C1006.54885164 11.60792442 1008.75518745 11.63979513 1010.96180683 11.67465866 C1012.18555803 11.68932083 1013.40930922 11.70398301 1014.67014379 11.7190895 C1018.10941794 12.00923062 1020.82316072 12.66183871 1024 14 C1025.91186523 16.38476563 1025.91186523 16.38476563 1027.55859375 19.40625 C1028.49650757 21.09065186 1028.49650757 21.09065186 1029.45336914 22.80908203 C1030.11486588 24.03932362 1030.77623958 25.26963137 1031.4375 26.5 C1032.13916839 27.77179061 1032.84289575 29.04244723 1033.54858398 30.31201172 C1035.00023651 32.92642947 1036.44372969 35.54510085 1037.88183594 38.16699219 C1041.02062161 43.87026903 1044.29361655 49.49561675 1047.5625 55.125 C1048.79085639 57.24971575 1050.01871921 59.37471692 1051.24609375 61.5 C1051.85694824 62.55703125 1052.46780273 63.6140625 1053.09716797 64.703125 C1054.75541462 67.57622775 1056.41072841 70.45097501 1058.06401062 73.32693481 C1059.08902072 75.10997818 1060.11462285 76.89267977 1061.14038086 78.67529297 C1062.4248814 80.90803902 1063.70831792 83.14139769 1064.99047852 85.37548828 C1065.57369873 86.38853027 1066.15691895 87.40157227 1066.7578125 88.4453125 C1067.30469727 89.40083008 1067.85158203 90.35634766 1068.41503906 91.34082031 C1070.23832084 94.39984451 1072.23166267 97.31225743 1074.34326172 100.17919922 C1075 102 1075 102 1074.32397461 104.34667969 C1072.86199736 107.27656512 1071.34787105 110.15848727 1069.76171875 113.0234375 C1069.2864399 113.88429459 1069.2864399 113.88429459 1068.80155945 114.76254272 C1067.76654475 116.63504339 1066.72716957 118.50508045 1065.6875 120.375 C1064.96096767 121.68644999 1064.23456947 122.9979743 1063.50830078 124.30957031 C1058.12795981 134.01528344 1052.68210123 143.68336721 1047.20703125 153.3359375 C1043.80449444 159.33721281 1040.43110769 165.35462882 1037.0625 171.375 C1036.48097168 172.41430664 1035.89944336 173.45361328 1035.30029297 174.52441406 C1034.12211521 176.63046792 1032.94405559 178.73658788 1031.76611328 180.84277344 C1028.26405868 187.10328908 1024.75786247 193.36148612 1021.25244141 199.62011719 C1018.32187215 204.85275048 1015.39230956 210.08594222 1012.46484375 215.3203125 C1006.2994112 226.34170521 1000.1126603 237.35045319 993.89208984 248.34082031 C988.15088304 258.48992675 982.4578339 268.66585758 976.76611328 278.84277344 C973.26405868 285.10328908 969.75786247 291.36148612 966.25244141 297.62011719 C963.32187215 302.85275048 960.39230956 308.08594222 957.46484375 313.3203125 C951.2994112 324.34170521 945.1126603 335.35045319 938.89208984 346.34082031 C932.55715696 357.53949514 926.2798583 368.77038025 920 380 C912.65789261 393.1291297 905.30171411 406.24965906 897.89208984 419.34082031 C891.55715696 430.53949514 885.2798583 441.77038025 879 453 C871.66109415 466.12340472 864.31134963 479.24008441 856.90087891 492.32324219 C853.45055778 498.41919369 850.02627384 504.52915393 846.61401367 510.64648438 C841.87509496 519.13916104 837.11510178 527.61501972 832.1875 536 C831.77282471 536.70624512 831.35814941 537.41249023 830.9309082 538.14013672 C828.13263257 542.86736743 828.13263257 542.86736743 827 544 C825.61175068 544.09881146 824.21848192 544.12799015 822.82672119 544.12939453 C821.46106396 544.13405479 821.46106396 544.13405479 820.06781769 544.1388092 C819.05060387 544.13683029 818.03339005 544.13485138 816.98535156 544.1328125 C815.90557793 544.13417709 814.82580429 544.13554169 813.71331024 544.13694763 C810.02238724 544.13902949 806.33154043 544.13248258 802.640625 544.125 C801.34173592 544.12378143 800.04284683 544.12256287 798.70459747 544.12130737 C760.71331998 544.08490014 722.7244454 543.57331457 684.73653173 543.10923672 C674.59038841 542.98542753 664.44419637 542.86584271 654.29799986 542.74648476 C633.53194563 542.50210862 612.76595293 542.25282949 592 542 C591.54540154 543.40421959 591.54540154 543.40421959 591.08161926 544.83680725 C590.03833588 547.88788681 588.7873028 550.44678113 587.19921875 553.24609375 C586.64105469 554.23609375 586.08289062 555.22609375 585.5078125 556.24609375 C584.90710937 557.29925781 584.30640625 558.35242188 583.6875 559.4375 C583.06230469 560.54351563 582.43710938 561.64953125 581.79296875 562.7890625 C579.86651995 566.19530363 577.93342271 569.59771379 576 573 C574.3591633 575.89954787 572.72025623 578.80017941 571.08154297 581.70092773 C570.01999247 583.57969841 568.95780949 585.45811183 567.89501953 587.33618164 C561.55828133 598.53593127 555.28074786 609.76878955 549 621 C541.65789261 634.1291297 534.30171411 647.24965906 526.89208984 660.34082031 C520.55715696 671.53949514 514.2798583 682.77038025 508 694 C500.65789261 707.1291297 493.30171411 720.24965906 485.89208984 733.34082031 C479.55715696 744.53949514 473.2798583 755.77038025 467 767 C459.65789261 780.1291297 452.30171411 793.24965906 444.89208984 806.34082031 C439.15088304 816.48992675 433.4578339 826.66585758 427.76611328 836.84277344 C424.26405868 843.10328908 420.75786247 849.36148612 417.25244141 855.62011719 C414.32187215 860.85275048 411.39230956 866.08594222 408.46484375 871.3203125 C402.2994112 882.34170521 396.1126603 893.35045319 389.89208984 904.34082031 C383.55715696 915.53949514 377.2798583 926.77038025 371 938 C363.65789261 951.1291297 356.30171411 964.24965906 348.89208984 977.34082031 C342.55715696 988.53949514 336.2798583 999.77038025 330 1011 C322.65789261 1024.1291297 315.30171411 1037.24965906 307.89208984 1050.34082031 C301.55715696 1061.53949514 295.2798583 1072.77038025 289 1084 C281.65789261 1097.1291297 274.30171411 1110.24965906 266.89208984 1123.34082031 C260.55715696 1134.53949514 254.2798583 1145.77038025 248 1157 C245.64642057 1161.20866216 243.29237402 1165.41706205 240.9375 1169.625 C240.36692871 1170.64456787 239.79635742 1171.66413574 239.20849609 1172.71459961 C234.49553981 1181.12944891 229.75383486 1189.52788453 224.99780273 1197.91845703 C224.23125366 1199.27173096 224.23125366 1199.27173096 223.44921875 1200.65234375 C222.99893311 1201.44632568 222.54864746 1202.24030762 222.0847168 1203.05834961 C221.35981674 1204.3559256 220.66470799 1205.67058402 220 1207 C216.1660942 1205.7220314 215.89363185 1204.52549332 213.99609375 1201.03125 C213.42576416 1199.99427979 212.85543457 1198.95730957 212.26782227 1197.88891602 C211.66381592 1196.77057373 211.05980957 1195.65223145 210.4375 1194.5 C209.16545643 1192.18543129 207.89201618 1189.87162963 206.6171875 1187.55859375 C205.99553711 1186.42663574 205.37388672 1185.29467773 204.73339844 1184.12841797 C202.5749568 1180.23288683 200.3413034 1176.38850119 198.0625 1172.5625 C193.92571282 1165.59296903 189.85877918 1158.58497227 185.8125 1151.5625 C185.17449463 1150.45527588 184.53648926 1149.34805176 183.87915039 1148.20727539 C182.57110523 1145.93662932 181.26324552 1143.66587642 179.95556641 1141.39501953 C177.42612446 1137.0037062 174.89400206 1132.61394627 172.35986328 1128.2253418 C171.12500202 1126.08386737 169.89288089 1123.94081042 168.66357422 1121.79614258 C165.74099162 1116.70460659 162.79358123 1111.63304069 159.75094604 1106.61242676 C158.31386393 1104.23750276 156.89173883 1101.85378932 155.47070312 1099.46923828 C154.45979984 1097.78710668 153.42737773 1096.11796688 152.39453125 1094.44921875 C151.78867187 1093.42957031 151.1828125 1092.40992188 150.55859375 1091.359375 C149.74346313 1090.02084473 149.74346313 1090.02084473 148.91186523 1088.65527344 C147.67506025 1085.05380329 148.46949895 1083.4313117 150 1080 C150.88671363 1078.22707005 151.8226366 1076.47807989 152.80078125 1074.75390625 C153.35894531 1073.76390625 153.91710937 1072.77390625 154.4921875 1071.75390625 C155.39324219 1070.17416016 155.39324219 1070.17416016 156.3125 1068.5625 C157.25029297 1066.90347656 157.25029297 1066.90347656 158.20703125 1065.2109375 C160.13348005 1061.80469637 162.06657729 1058.40228621 164 1055 C165.6408367 1052.10045213 167.27974377 1049.19982059 168.91845703 1046.29907227 C169.98000753 1044.42030159 171.04219051 1042.54188817 172.10498047 1040.66381836 C178.44171867 1029.46406873 184.71925214 1018.23121045 191 1007 C198.34210739 993.8708703 205.69828589 980.75034094 213.10791016 967.65917969 C218.84911696 957.51007325 224.5421661 947.33414242 230.23388672 937.15722656 C233.73594132 930.89671092 237.24213753 924.63851388 240.74755859 918.37988281 C243.67812785 913.14724952 246.60769044 907.91405778 249.53515625 902.6796875 C255.7005888 891.65829479 261.8873397 880.64954681 268.10791016 869.65917969 C274.44284304 858.46050486 280.7201417 847.22961975 287 836 C294.34210739 822.8708703 301.69828589 809.75034094 309.10791016 796.65917969 C315.44284304 785.46050486 321.7201417 774.22961975 328 763 C335.34210739 749.8708703 342.69828589 736.75034094 350.10791016 723.65917969 C356.44284304 712.46050486 362.7201417 701.22961975 369 690 C376.34210739 676.8708703 383.69828589 663.75034094 391.10791016 650.65917969 C397.44284304 639.46050486 403.7201417 628.22961975 410 617 C417.34210739 603.8708703 424.69828589 590.75034094 432.10791016 577.65917969 C438.44284304 566.46050486 444.7201417 555.22961975 451 544 C458.34130716 530.87230126 465.69588105 517.7527374 473.10571289 504.66357422 C477.09058246 497.62024036 481.04998867 490.56293416 485 483.5 C490.0029177 474.55438556 495.03004619 465.62297584 500.08349609 456.70581055 C503.01461094 451.52906182 505.92746507 446.34277571 508.8203125 441.14453125 C509.45517578 440.005 510.09003906 438.86546875 510.74414062 437.69140625 C511.97190423 435.48576654 513.19727525 433.2787928 514.41992188 431.0703125 C515.25233398 429.57564453 515.25233398 429.57564453 516.1015625 428.05078125 C516.58963379 427.17075439 517.07770508 426.29072754 517.58056641 425.3840332 C518.28318604 424.20393677 518.28318604 424.20393677 519 423 C519.36033325 422.29961105 519.7206665 421.59922211 520.09191895 420.87760925 C522.50882169 418.49930412 524.2806995 418.53484293 527.58710861 418.52130127 C528.36644382 418.53876404 529.14577904 418.55622681 529.94873047 418.57421875 C530.79233753 418.577099 531.6359446 418.57997925 532.50511551 418.58294678 C535.41795832 418.59830253 538.32964989 418.64319541 541.2421875 418.6875 C543.38710258 418.70546953 545.53203222 418.72176173 547.67697144 418.73657227 C553.29373893 418.78096143 558.9100366 418.84639731 564.52650297 418.91911411 C569.85861861 418.98747011 575.19079095 419.04570242 580.52307129 419.09960938 C581.34663565 419.10795115 582.17020001 419.11629292 583.01872087 419.12488747 C584.72048279 419.14211608 586.42224475 419.1593413 588.12400675 419.17656326 C608.54841921 419.38493704 628.97228011 419.63460462 649.39613986 419.89076042 C664.87935216 420.08493144 680.36263082 420.27372862 695.84591663 420.46193409 C701.24839706 420.5277129 706.65086143 420.59465102 712.05331445 420.66264343 C715.4060414 420.70469997 718.75877715 420.74602278 722.11151505 420.78719711 C723.64686488 420.80621811 725.18221087 420.82555276 726.71755219 420.84524918 C736.47902114 420.97031357 746.23782152 421.02333613 756 421 C756.36134537 420.32742661 756.72269073 419.65485321 757.09498596 418.9618988 C764.67495838 404.85914769 772.42411819 390.8658505 780.33203125 376.94482422 C783.21868403 371.84839479 786.07800223 366.73670025 788.9375 361.625 C789.51806152 360.58754639 790.09862305 359.55009277 790.69677734 358.48120117 C792.46491223 355.32102098 794.23254334 352.16055956 796 349 C803.34210739 335.8708703 810.69828589 322.75034094 818.10791016 309.65917969 C823.84911696 299.51007325 829.5421661 289.33414242 835.23388672 279.15722656 C838.15398137 273.93706289 841.07713566 268.71861321 844 263.5 C845.16668154 261.41667499 846.3333482 259.33334166 847.5 257.25 C849.83333333 253.08333333 852.16666667 248.91666667 854.5 244.75 C855.07758057 243.71858887 855.65516113 242.68717773 856.25024414 241.62451172 C857.41603752 239.54277268 858.58189032 237.46106691 859.74780273 235.37939453 C862.6783206 230.14694077 865.60777916 224.91389914 868.53515625 219.6796875 C874.69818949 208.66258383 880.88060522 197.65701027 887.10131836 186.67236328 C889.92694216 181.6794136 892.74136458 176.68053353 895.5390625 171.671875 C896.13783203 170.60001953 896.73660156 169.52816406 897.35351562 168.42382812 C898.4759476 166.41285573 899.59718925 164.4012181 900.71679688 162.38867188 C904.32678747 155.92058884 908.01432845 149.50064304 911.72998047 143.09277344 C912.49205055 141.77755203 912.49205055 141.77755203 913.26951599 140.4357605 C914.51269328 138.29032279 915.75619553 136.14507415 917 134 C876.62834747 133.17310768 836.25634685 132.63376663 795.87924259 132.16793587 C786.7777055 132.06284699 777.67619495 131.95553113 768.5746845 131.84816451 C751.7823429 131.65011962 734.98998314 131.45365967 718.19761276 131.2580719 C695.25251646 130.99078976 672.30745176 130.72086325 649.36239465 130.45023984 C638.62015588 130.32354246 627.87791577 130.19695948 617.13567543 130.07039642 C616.06109542 130.05773561 614.98651542 130.04507479 613.87937238 130.03203032 C588.4124293 129.73199827 562.94547401 129.43300749 537.47851562 129.13427734 C535.81109653 129.11471744 535.81109653 129.11471744 534.10999219 129.09476238 C508.15359369 128.79028274 482.19719123 128.48614283 456.24078369 128.18243408 C453.98204058 128.15600421 451.72329746 128.12957421 449.46455435 128.10314408 C447.78846275 128.08353174 447.78846275 128.08353174 446.07851073 128.06352319 C440.44394203 127.99759131 434.80937335 127.93165738 429.17480469 127.86572266 C427.50424324 127.84617479 427.50424324 127.84617479 425.79993307 127.82623201 C400.33396104 127.52823633 374.86799456 127.22977929 349.40204811 126.92960358 C347.79351193 126.91064326 347.79351193 126.91064326 346.15248007 126.89129991 C335.44256644 126.7650451 324.73265398 126.63869082 314.02274316 126.51219808 C308.75338897 126.44996593 303.48403446 126.3877615 298.21467972 126.32557678 C297.17797305 126.31334235 296.14126639 126.30110792 295.07314437 126.28850275 C278.47456259 126.09268681 261.8759564 125.89902169 245.27733897 125.70625474 C228.5854699 125.51237382 211.89362587 125.31644638 195.20180498 125.11846006 C185.31773197 125.00128891 175.43364355 124.88569866 165.54952449 124.77247705 C158.91700586 124.69634143 152.28451477 124.61804874 145.65204064 124.53813169 C141.89435614 124.49291302 138.13666806 124.44851207 134.37894289 124.40679783 C132.98870248 124.39119546 131.59846211 124.37558866 130.20822179 124.35997725 C129.52971217 124.35253727 128.85120255 124.3450973 128.15213204 124.33743188 C123.5112413 124.28421834 118.87156963 124.1978971 114.23124385 124.10660648 C109.07269845 124.00535875 103.92661562 124.01737388 98.76791808 124.11183999 C95.47968826 124.16363089 92.19214551 124.16982992 88.90355295 124.16982674 C87.32749143 124.18072069 85.75141884 124.21161914 84.17619786 124.2642257 C71.9427864 124.66096765 71.9427864 124.66096765 67.0864058 120.509049 C63.18297006 115.53458129 60.18671978 110.30414814 58.01171875 104.37890625 C55.19131891 97.13885519 51.49746072 90.64821049 47.5 84 C46.24567365 81.83583507 44.99567495 79.66915614 43.75 77.5 C43.13125 76.4275 42.5125 75.355 41.875 74.25 C36.25 64.5 36.25 64.5 34.3737793 61.24780273 C33.1279423 59.08840605 31.88201182 56.92906331 30.63598633 54.76977539 C27.44651047 49.24232403 24.25883115 43.71384879 21.07421875 38.18359375 C19.77868343 35.93487417 18.48311104 33.68617595 17.1875 31.4375 C16.56673584 30.35919922 15.94597168 29.28089844 15.30639648 28.16992188 C12.5088363 23.31758267 9.69879849 18.47430694 6.8359375 13.66015625 C6.36260986 12.86359619 5.88928223 12.06703613 5.40161133 11.24633789 C4.5357448 9.7938606 3.66604464 8.34365882 2.79174805 6.89624023 C0 2.21802943 0 2.21802943 0 0 Z " fill="#4455FF" transform="translate(666,0)"/>
<path d="M0 0 C0.3309668 0.61705811 0.66193359 1.23411621 1.00292969 1.86987305 C7.3101987 13.61298351 13.68653937 25.30342203 20.33911133 36.85473633 C24.44165239 43.98996758 28.44981496 51.17502723 32.4375 58.375 C37.63335844 67.75419399 42.86974151 77.10850049 48.15600586 86.43701172 C52.12620629 93.44567417 56.06868319 100.46945989 60 107.5 C65.01101737 116.46024377 70.04772356 125.40543454 75.10766602 134.33813477 C77.89799962 139.26793504 80.67596258 144.20416551 83.43359375 149.15234375 C89.90561519 160.76401797 96.45730396 172.31806921 103.20678711 183.77124023 C104.01708374 185.14904663 104.01708374 185.14904663 104.84375 186.5546875 C105.30974609 187.34343262 105.77574219 188.13217773 106.25585938 188.94482422 C107.90983542 191.84206054 109.51360797 194.76113496 111.10900879 197.69094849 C111.65014565 198.6843178 112.1912825 199.67768711 112.74881744 200.70115852 C113.16170769 201.45977621 113.57459793 202.2183939 114 203 C163.71849904 203.29780228 213.42816981 202.85315379 263.14257812 202.265625 C263.94799904 202.25611506 264.75341995 202.24660511 265.58324756 202.23680699 C286.21657185 201.9929501 306.8497897 201.74057484 327.48297293 201.48509106 C341.19561721 201.31530519 354.90828813 201.14786666 368.62098694 200.98254395 C369.54084563 200.97145317 370.46070432 200.9603624 371.40843752 200.94893554 C376.08315776 200.89258415 380.75787847 200.83627128 385.43259937 200.77997446 C418.27623833 200.38438821 451.11982459 199.98457993 483.96337891 199.58203125 C515.76902134 199.19221909 547.57468168 198.80393028 579.38037109 198.41796875 C580.85770143 198.40004008 580.85770143 198.40004008 582.36487681 198.38174921 C603.90464913 198.12035248 625.44442556 197.85929602 646.98420409 197.59841207 C652.69565579 197.52923544 658.4071074 197.46005105 664.11855898 197.39086454 C668.82023035 197.33391036 673.52190179 197.27696168 678.22357339 197.22002554 C701.16387905 196.94220831 724.10416851 196.66310695 747.04443731 196.38226265 C747.92957891 196.37142664 748.8147205 196.36059064 749.72668457 196.34942627 C751.04886134 196.33324 751.04886134 196.33324 752.39774875 196.31672674 C763.49403114 196.18091926 774.59032114 196.04573546 785.68661225 195.91064167 C794.3932675 195.804611 803.09991572 195.69803507 811.80655504 195.59070463 C817.6264997 195.51900636 823.44645214 195.44796492 829.26641118 195.3774436 C832.57681293 195.33730957 835.88720862 195.29678464 839.19759804 195.2556386 C864.40441047 194.94261582 864.40441047 194.94261582 877 195 C876.30970877 198.7991644 875.35308563 201.49759239 873.3671875 204.82421875 C872.54069702 206.22293213 872.54069702 206.22293213 871.69750977 207.64990234 C870.79536743 209.15351318 870.79536743 209.15351318 869.875 210.6875 C868.58913841 212.86025981 867.30400648 215.03345157 866.01953125 217.20703125 C865.3538916 218.32932129 864.68825195 219.45161133 864.00244141 220.60791016 C860.81524874 226.00694148 857.68875325 231.4405284 854.5625 236.875 C853.30346844 239.05994368 852.04435339 241.24483925 850.78515625 243.4296875 C850.16012207 244.51475586 849.53508789 245.59982422 848.89111328 246.71777344 C845.14348395 253.22217941 841.39095039 259.72375795 837.63842773 266.2253418 C834.43467538 271.77686292 831.23415423 277.33020797 828.0390625 282.88671875 C816.8002005 302.4218588 816.8002005 302.4218588 811.625 311.0625 C811.26164551 311.66989014 810.89829102 312.27728027 810.52392578 312.90307617 C808.1303105 316.8696895 808.1303105 316.8696895 807 318 C803.88676854 318.15280605 800.79395467 318.24012536 797.67842197 318.28659725 C796.68916826 318.30506001 795.69991455 318.32352277 794.68068346 318.34254501 C791.33736724 318.4033117 787.99397659 318.45655916 784.65052795 318.50950623 C782.25441817 318.55070205 779.85831218 318.59211876 777.46220976 318.63374084 C749.52101245 319.10804752 721.57762557 319.43808058 693.63439409 319.76517655 C685.5328863 319.86008413 677.43140565 319.95723124 669.32992448 320.05438088 C653.47201901 320.24447121 637.61408947 320.43248422 621.75614792 320.61953783 C607.88756999 320.78312863 594.01900038 320.94740375 580.15043831 321.1123333 C579.22352192 321.12335533 578.29660554 321.13437737 577.34160078 321.1457334 C573.57729569 321.19049509 569.81299063 321.23525879 566.04868562 321.28002619 C530.89587809 321.69806832 495.74304494 322.11391862 460.59019986 322.52878958 C429.4586286 322.89621657 398.3270828 323.26573453 367.19555664 323.63696289 C332.07335828 324.05577214 296.95114359 324.47317133 261.82890278 324.88840669 C258.07749971 324.93276202 254.32609668 324.97712124 250.57469368 325.02148247 C249.65125885 325.03240117 248.72782403 325.04331987 247.77640633 325.05456945 C233.91545055 325.21848732 220.05450773 325.38347038 206.19357109 325.54899788 C190.42481405 325.7373043 174.65603961 325.92407242 158.88724106 326.10887153 C150.86031829 326.20298013 142.83340503 326.29777113 134.80651283 326.39445496 C132.52617918 326.42182082 130.24584526 326.44916473 127.96551124 326.47649952 C126.48013688 326.49435947 124.99476363 326.51231155 123.50939153 326.53035845 C115.86098937 326.62321429 108.21268939 326.70914798 100.56397331 326.77172577 C98.0192094 326.79298659 95.47444678 326.81440202 92.92968559 326.83598518 C91.72187396 326.84610591 90.51406232 326.85622663 89.26965033 326.86665405 C82.82807843 326.93011732 76.39550113 327.06113464 69.95789058 327.29618182 C66.50684731 327.4200275 63.05539032 327.5107431 59.60322256 327.59672796 C57.39910714 327.66674115 55.20257562 327.78955351 53.00109428 327.91563612 C49.39248607 327.99678432 46.46301173 328.01556425 43 327 C40.04653689 324.00920222 38.54240822 320.87036765 37 317 C36.41919678 315.98848877 35.83839355 314.97697754 35.23999023 313.93481445 C34.76762939 313.0862085 34.29526855 312.23760254 33.80859375 311.36328125 C32.99068359 309.89761719 32.99068359 309.89761719 32.15625 308.40234375 C31.5890625 307.38269531 31.021875 306.36304688 30.4375 305.3125 C29.19700866 303.08962379 27.95611445 300.86697236 26.71484375 298.64453125 C25.78260986 296.97511475 25.78260986 296.97511475 24.83154297 295.27197266 C22.07022053 290.338989 19.2861137 285.41901142 16.5 280.5 C11.38244017 271.46071751 6.30066751 262.40185582 1.23046875 253.3359375 C-2.66158037 246.38030205 -6.57333772 239.43614796 -10.5 232.5 C-15.61734803 223.46059691 -20.6993318 214.40185704 -25.76953125 205.3359375 C-29.66158037 198.38030205 -33.57333772 191.43614796 -37.5 184.5 C-42.60763251 175.47775862 -47.68372374 166.43828576 -52.73876953 157.38647461 C-55.72830462 152.03781919 -58.73522763 146.70008693 -61.7734375 141.37890625 C-62.37800781 140.31800781 -62.98257812 139.25710937 -63.60546875 138.1640625 C-64.76330766 136.13464948 -65.9246307 134.10721931 -67.08984375 132.08203125 C-67.86134766 130.72851562 -67.86134766 130.72851562 -68.6484375 129.34765625 C-69.10395996 128.55367432 -69.55948242 127.75969238 -70.02880859 126.94165039 C-71 125 -71 125 -71 123 C-72.06953321 123.02652901 -73.13906641 123.05305801 -74.24100971 123.08039093 C-105.57467846 123.8494626 -136.90762602 124.3128081 -168.24837089 124.67424965 C-174.13500834 124.74272007 -180.02161508 124.8137048 -185.90822206 124.88474101 C-197.57494515 125.0254935 -209.24168706 125.16460568 -220.90844727 125.30224609 C-221.94382944 125.31446214 -221.94382944 125.31446214 -223.00012843 125.32692498 C-229.29714769 125.4012042 -235.59416833 125.47536595 -241.89118958 125.54947662 C-246.08834872 125.59887403 -250.28550755 125.64829853 -254.48266602 125.69775391 C-255.17293645 125.70588677 -255.86320689 125.71401963 -256.57439461 125.72239894 C-268.21743142 125.85963919 -279.86044354 125.99887817 -291.5034402 126.13948298 C-297.97966531 126.21756772 -304.45589855 126.29467582 -310.93216515 126.36924744 C-340.96103314 126.71526443 -370.97983656 127.18795558 -401 128 C-399.94226897 129.90599517 -398.88452774 131.81198467 -397.82678223 133.7179718 C-397.23775368 134.77937032 -396.64872513 135.84076883 -396.04184723 136.93433094 C-385.39815377 156.11113989 -374.69514374 175.25389664 -363.8918457 194.34130859 C-356.96156029 206.59218361 -350.09942168 218.88123272 -343.22949219 231.16601562 C-337.00805614 242.28970968 -330.77802466 253.40812405 -324.5 264.5 C-318.22036161 275.59472704 -311.98899302 286.71613393 -305.76611328 297.84277344 C-302.84601864 303.06293709 -299.92290168 308.28140773 -297 313.5 C-293.48676148 319.77258848 -289.97418251 326.04554119 -286.46484375 332.3203125 C-280.83065887 342.39204122 -275.18457751 352.45661343 -269.5 362.5 C-262.03078676 375.69644174 -254.630636 388.93131721 -247.22949219 402.16601562 C-241.00805614 413.28970968 -234.77802466 424.40812405 -228.5 435.5 C-221.03078676 448.69644174 -213.630636 461.93131721 -206.22949219 475.16601562 C-200.00805614 486.28970968 -193.77802466 497.40812405 -187.5 508.5 C-180.03078676 521.69644174 -172.630636 534.93131721 -165.22949219 548.16601562 C-159.00805614 559.28970968 -152.77802466 570.40812405 -146.5 581.5 C-139.03078676 594.69644174 -131.630636 607.93131721 -124.22949219 621.16601562 C-118.00805614 632.28970968 -111.77802466 643.40812405 -105.5 654.5 C-98.03078676 667.69644174 -90.630636 680.93131721 -83.22949219 694.16601562 C-77.00805614 705.28970968 -70.77802466 716.40812405 -64.5 727.5 C-57.03078676 740.69644174 -49.630636 753.93131721 -42.22949219 767.16601562 C-36.00805614 778.28970968 -29.77802466 789.40812405 -23.5 800.5 C-17.23780869 811.56390193 -11.02410319 822.65457718 -4.81884766 833.75048828 C-2.90647163 837.16709566 -0.9907264 840.58180326 0.92578125 843.99609375 C1.56588135 845.1370752 2.20598145 846.27805664 2.86547852 847.45361328 C4.09574436 849.64638403 5.32667158 851.83878388 6.55834961 854.03076172 C7.11143799 855.01705566 7.66452637 856.00334961 8.234375 857.01953125 C8.72131836 857.88682861 9.20826172 858.75412598 9.70996094 859.64770508 C10.13567383 860.4239624 10.56138672 861.20021973 11 862 C11.43602539 862.6592749 11.87205078 863.3185498 12.32128906 863.99780273 C13 866 13 866 12.1640625 868.36816406 C11.65617188 869.24182617 11.14828125 870.11548828 10.625 871.015625 C10.05918213 872.0068335 9.49336426 872.99804199 8.91040039 874.01928711 C8.27996826 875.08542236 7.64953613 876.15155762 7 877.25 C6.03791626 878.91977905 6.03791626 878.91977905 5.05639648 880.62329102 C3.71264975 882.94968231 2.36393353 885.27188543 1.00341797 887.58837891 C-0.85007533 890.74469324 -2.69102874 893.90788924 -4.52734375 897.07421875 C-6.82224107 901.02455408 -9.12649211 904.96922562 -11.4375 908.91015625 C-15.1321329 915.21570384 -18.78856914 921.54292025 -22.4375 927.875 C-23.36804199 929.48979248 -23.36804199 929.48979248 -24.31738281 931.13720703 C-25.57694269 933.32333594 -26.83638234 935.50953413 -28.09570312 937.69580078 C-30.01506662 941.02614252 -31.93682353 944.35509148 -33.859375 947.68359375 C-41.60902794 961.10190146 -49.32730329 974.53753017 -57 988 C-60.75955656 986.74681448 -61.00249581 985.72347315 -62.86328125 982.3125 C-63.41306641 981.31669922 -63.96285156 980.32089844 -64.52929688 979.29492188 C-65.11775391 978.20759766 -65.70621094 977.12027344 -66.3125 976 C-67.57918223 973.69778193 -68.84611618 971.39570235 -70.11328125 969.09375 C-70.76662582 967.89984191 -71.41978329 966.70583141 -72.07275391 965.51171875 C-75.00820846 960.1519795 -78.00712711 954.82781333 -81 949.5 C-82.16696952 947.4168363 -83.33363513 945.33350231 -84.5 943.25 C-85.36625 941.703125 -85.36625 941.703125 -86.25 940.125 C-91.5 930.74999999 -91.5 930.74999999 -93.25024414 927.62451172 C-94.41603752 925.54277268 -95.58189032 923.46106691 -96.74780273 921.37939453 C-99.6783206 916.14694077 -102.60777916 910.91389914 -105.53515625 905.6796875 C-111.16934113 895.60795878 -116.81542249 885.54338657 -122.5 875.5 C-129.96921324 862.30355826 -137.369364 849.06868279 -144.77050781 835.83398438 C-150.99194386 824.71029032 -157.22197534 813.59187595 -163.5 802.5 C-169.77963839 791.40527296 -176.01100698 780.28386607 -182.23388672 769.15722656 C-185.15398136 763.93706291 -188.07709832 758.71859227 -191 753.5 C-194.51323852 747.22741152 -198.02581749 740.95445881 -201.53515625 734.6796875 C-207.16934113 724.60795878 -212.81542249 714.54338657 -218.5 704.5 C-224.77963839 693.40527296 -231.01100698 682.28386607 -237.23388672 671.15722656 C-240.15398136 665.93706291 -243.07709832 660.71859227 -246 655.5 C-249.51323852 649.22741152 -253.02581749 642.95445881 -256.53515625 636.6796875 C-262.16934113 626.60795878 -267.81542249 616.54338657 -273.5 606.5 C-279.77963839 595.40527296 -286.01100698 584.28386607 -292.23388672 573.15722656 C-295.15398136 567.93706291 -298.07709832 562.71859227 -301 557.5 C-304.51323852 551.22741152 -308.02581749 544.95445881 -311.53515625 538.6796875 C-317.16934113 528.60795878 -322.81542249 518.54338657 -328.5 508.5 C-334.77963839 497.40527296 -341.01100698 486.28386607 -347.23388672 475.15722656 C-350.15398136 469.93706291 -353.07709832 464.71859227 -356 459.5 C-359.51323852 453.22741152 -363.02581749 446.95445881 -366.53515625 440.6796875 C-372.16934113 430.60795878 -377.81542249 420.54338657 -383.5 410.5 C-389.77963839 399.40527296 -396.01100698 388.28386607 -402.23388672 377.15722656 C-405.15398136 371.93706291 -408.07709832 366.71859227 -411 361.5 C-414.51323852 355.22741152 -418.02581749 348.95445881 -421.53515625 342.6796875 C-427.16934113 332.60795878 -432.81542249 322.54338657 -438.5 312.5 C-444.77963839 301.40527296 -451.01100698 290.28386607 -457.23388672 279.15722656 C-460.15398136 273.93706291 -463.07709832 268.71859227 -466 263.5 C-469.51323852 257.22741152 -473.02581749 250.95445881 -476.53515625 244.6796875 C-482.16934113 234.60795878 -487.81542249 224.54338657 -493.5 214.5 C-499.77963839 203.40527296 -506.01100698 192.28386607 -512.23388672 181.15722656 C-515.15398136 175.93706291 -518.07709832 170.71859227 -521 165.5 C-524.51323852 159.22741152 -528.02581749 152.95445881 -531.53515625 146.6796875 C-538.41431738 134.38230832 -545.31867287 122.09958167 -552.2578125 109.8359375 C-552.72348633 109.0015918 -553.18916016 108.16724609 -553.66894531 107.30761719 C-554.50984112 105.84977655 -555.39049002 104.41354451 -556.32324219 103.01269531 C-558.15152134 100.2191092 -559.07901776 98.60155453 -558.63671875 95.234375 C-556.21786618 90.45439904 -553.5567577 85.84973529 -550.8125 81.25 C-549.53580222 79.08632451 -548.25978329 76.92224834 -546.984375 74.7578125 C-546.32501953 73.64180664 -545.66566406 72.52580078 -544.98632812 71.37597656 C-541.81074601 65.97873596 -538.68629931 60.55232334 -535.5625 55.125 C-534.31510741 52.96093563 -533.06771156 50.79687314 -531.8203125 48.6328125 C-529.87157246 45.24996094 -527.92328132 41.86685154 -525.97558594 38.48339844 C-524.61884742 36.12653709 -523.26166779 33.76993076 -521.90405273 31.41357422 C-520.63453881 29.20993131 -519.36576732 27.00586045 -518.09790039 24.80126953 C-517.5177417 23.79435059 -516.93758301 22.78743164 -516.33984375 21.75 C-515.58755493 20.44289063 -515.58755493 20.44289063 -514.82006836 19.109375 C-514.2194458 18.08328125 -513.61882324 17.0571875 -513 16 C-512.68830579 15.19399607 -512.37661157 14.38799214 -512.05547208 13.55756384 C-510.67462259 10.48820529 -509.39475904 8.38153575 -507 6 C-501.87784679 4.4292189 -496.78077367 4.57477454 -491.47749329 4.61436462 C-489.86243175 4.59005833 -488.24743097 4.56138942 -486.63251656 4.52873904 C-482.19237981 4.45161094 -477.75384997 4.43645752 -473.31312573 4.43128788 C-468.51959196 4.41487089 -463.72690156 4.34109454 -458.93385315 4.27429199 C-450.60848664 4.16613625 -442.28344026 4.09447686 -433.95751381 4.04728508 C-421.82069629 3.97839782 -409.68493131 3.85398193 -397.54871919 3.71657402 C-377.72749385 3.49364892 -357.90612418 3.31510406 -338.08422852 3.16430664 C-319.05499999 3.01944229 -300.02612062 2.85514756 -280.99731445 2.66235352 C-279.83762228 2.65061118 -278.6779301 2.63886884 -277.48309574 2.62677067 C-271.6520756 2.56759849 -265.82105981 2.50800838 -259.99004614 2.44820201 C-248.4476658 2.32992194 -236.90525862 2.21434306 -225.36283875 2.09999084 C-224.23586284 2.08882392 -223.10888694 2.077657 -221.94776025 2.06615169 C-196.46959006 1.81452804 -170.99112859 1.6003469 -145.51259817 1.38899438 C-110.72053022 1.10019564 -75.92946973 0.74518518 -41.13849756 0.34570661 C-37.44265012 0.30328754 -33.74679907 0.26118665 -30.0509484 0.21905069 C-27.54028658 0.19019871 -25.02963367 0.1606521 -22.51898086 0.13102782 C-15.01233358 0.04399958 -7.50729486 -0.02271282 0 0 Z " fill="#4455FF" transform="translate(559,6)"/>
<path d="M0 0 C152.13 0 304.26 0 461 0 C459.45782782 3.85543044 457.90199218 7.08953498 455.83984375 10.6484375 C454.8952832 12.28232422 454.8952832 12.28232422 453.93164062 13.94921875 C453.27357422 15.07972656 452.61550781 16.21023438 451.9375 17.375 C450.99100586 19.01275391 450.99100586 19.01275391 450.02539062 20.68359375 C445.84230731 27.90162852 441.57576678 35.06582315 437.2746582 42.21386719 C433.53059459 48.43868397 429.83068386 54.68979227 426.125 60.9375 C425.30236457 62.32383386 424.47969112 63.71014517 423.65698242 65.09643555 C421.95429018 67.96557634 420.25175851 70.83481234 418.54931641 73.70410156 C416.06902828 77.88405431 413.58744832 82.06323893 411.10546875 86.2421875 C403.73145575 98.65819122 396.36012418 111.07575629 389 123.5 C383.23454481 133.23236573 377.46318231 142.96120111 371.6875 152.6875 C371.29130463 153.35470062 370.89510925 154.02190125 370.48690796 154.70932007 C367.25193652 160.15696306 364.01665951 165.60442456 360.78137207 171.05187988 C357.95827352 175.80533608 355.135293 180.55886235 352.3125 185.3125 C351.91606293 185.98010345 351.51962585 186.64770691 351.11117554 187.33554077 C345.73610421 196.38759251 340.36572233 205.44240257 335 214.5 C329.23454481 224.23236573 323.46318231 233.96120111 317.6875 243.6875 C317.29130463 244.35470062 316.89510925 245.02190125 316.48690796 245.70932007 C313.25193652 251.15696306 310.01665951 256.60442456 306.78137207 262.05187988 C303.95827352 266.80533608 301.135293 271.55886235 298.3125 276.3125 C297.91606293 276.98010345 297.51962585 277.64770691 297.11117554 278.33554077 C291.08757531 288.47976724 285.07079317 298.62800987 279.05786133 308.77856445 C273.07679898 318.87388398 267.08660257 328.96376949 261.09277344 339.05151367 C257.21552742 345.57794758 253.34342688 352.10732035 249.484375 358.64453125 C248.41242223 360.4589436 247.34036956 362.2732969 246.26831055 364.08764648 C245.29015482 365.74448422 244.31398005 367.40249098 243.33789062 369.06054688 C240.32764648 374.15505438 237.28376444 379.22858281 234.171875 384.26171875 C233.61081055 385.17268311 233.04974609 386.08364746 232.47167969 387.0222168 C231.98602539 387.67488525 231.50037109 388.32755371 231 389 C230.34 389 229.68 389 229 389 C228.69932617 388.46858398 228.39865234 387.93716797 228.08886719 387.38964844 C222.17270416 376.94804551 216.18655534 366.55811644 209.98632812 356.2824707 C205.20453448 348.35559963 200.47367914 340.39908203 195.75 332.4375 C195.13727737 331.40500626 195.13727737 331.40500626 194.51217651 330.35165405 C188.35444634 319.97499359 182.20292995 309.59465116 176.05297852 299.21337891 C170.93607727 290.57682541 165.81302908 281.94393524 160.6875 273.3125 C160.29130463 272.64529938 159.89510925 271.97809875 159.48690796 271.29067993 C156.65810616 266.52702046 153.82907813 261.76349537 151 257 C147.7706794 251.56259141 144.54145651 246.12512482 141.3125 240.6875 C140.71784439 239.68609482 140.71784439 239.68609482 140.11117554 238.66445923 C134.08539481 228.51656062 128.06656939 218.36456476 122.05126953 208.21044922 C116.93489307 199.57489887 111.81245185 190.94296318 106.6875 182.3125 C106.29130463 181.64529938 105.89510925 180.97809875 105.48690796 180.29067993 C102.65810616 175.52702046 99.82907813 170.76349537 97 166 C93.7706794 160.56259141 90.54145651 155.12512482 87.3125 149.6875 C86.71784439 148.68609482 86.71784439 148.68609482 86.11117554 147.66445923 C80.08539481 137.51656062 74.06656939 127.36456476 68.05126953 117.21044922 C62.93489307 108.57489887 57.81245185 99.94296318 52.6875 91.3125 C52.29130463 90.64529938 51.89510925 89.97809875 51.48690796 89.29067993 C48.65810616 84.52702046 45.82907813 79.76349537 43 75 C40.16989555 70.23477655 37.33988382 65.46949808 34.5100708 60.70410156 C33.31980839 58.69980667 32.12938805 56.69560564 30.93896484 54.69140625 C27.13090527 48.27927761 23.32679122 41.86486005 19.53125 35.4453125 C18.81210512 34.22956646 18.09294843 33.0138274 17.3737793 31.7980957 C16.05626366 29.57081298 14.74020819 27.34269079 13.42504883 25.11401367 C9.65822751 18.74447364 9.65822751 18.74447364 5.76708984 12.45068359 C5.39633835 11.86087204 5.02558685 11.27106049 4.64360046 10.66337585 C3.59891776 9.00669398 2.54614273 7.35512315 1.49291992 5.70385742 C0 3 0 3 0 0 Z " fill="#4455FF" transform="translate(640,390)"/>
</svg>
